<svg xmlns="http://www.w3.org/2000/svg" xmlns:xlink="http://www.w3.org/1999/xlink" width="50.104" height="52.396" viewBox="0 0 50.104 52.396"><defs><style>.a{fill:#fff;}.b{filter:url(#a);}</style><filter id="a" x="0" y="0" width="50.104" height="52.396" filterUnits="userSpaceOnUse"><feOffset dy="3" input="SourceAlpha"/><feGaussianBlur stdDeviation="3" result="b"/><feFlood flood-opacity="0.161"/><feComposite operator="in" in2="b"/><feComposite in="SourceGraphic"/></filter></defs><g class="b" transform="matrix(1, 0, 0, 1, 0, 0)"><path class="a" d="M567.225,195.465l-1.732-1.04a1.817,1.817,0,0,0-.447-.186v-1.849c0-6.281-5.829-11.391-12.994-11.391s-12.994,5.11-12.994,11.391v1.849a1.817,1.817,0,0,0-.447.186l-1.732,1.04a1.809,1.809,0,0,0-.878,1.552v6.15a1.81,1.81,0,0,0,.878,1.552l1.732,1.039a1.81,1.81,0,0,0,2.211-.272h0a1.809,1.809,0,0,0,.53-1.279v-8.229a1.809,1.809,0,0,0-.53-1.28h0a1.852,1.852,0,0,0-.235-.2v-2.109c0-5.438,5.143-9.862,11.466-9.862s11.466,4.424,11.466,9.862V194.5a1.852,1.852,0,0,0-.235.2h0a1.809,1.809,0,0,0-.53,1.28v8.229a1.8,1.8,0,0,0,.478,1.215,10.573,10.573,0,0,1-7.459,7.147,1.525,1.525,0,0,0-1.427-.994h-4.586a1.528,1.528,0,0,0-1.529,1.529v.764a1.528,1.528,0,0,0,1.529,1.529h4.586a1.528,1.528,0,0,0,1.529-1.529v-.527l.209.733a12.166,12.166,0,0,0,8.569-8.063,1.807,1.807,0,0,0,.842-.255l1.732-1.039a1.81,1.81,0,0,0,.878-1.552v-6.15A1.809,1.809,0,0,0,567.225,195.465Z" transform="translate(-527 -175)"/></g></svg>