<svg xmlns="http://www.w3.org/2000/svg" xmlns:xlink="http://www.w3.org/1999/xlink" width="20" height="20" viewBox="0 0 20 20"><defs><style>.a{fill:#fff;stroke:#707070;}.b{clip-path:url(#a);}.c{fill:#003041;}</style><clipPath id="a"><rect class="a" width="20" height="20" transform="translate(-0.445 -0.445)"/></clipPath></defs><g class="b" transform="translate(0.445 0.445)"><g transform="translate(1.937 1.566)"><path class="c" d="M213.218,210.109A3.109,3.109,0,1,1,210.109,207,3.109,3.109,0,0,1,213.218,210.109Zm0,0" transform="translate(-202.195 -202.004)"/><path class="c" d="M150.925,137.763a3.072,3.072,0,0,0-.722-1.137,2.983,2.983,0,0,0-1.11-.74,5.232,5.232,0,0,0-1.792-.34c-1.018-.048-1.323-.058-3.9-.058s-2.883.01-3.9.058a5.235,5.235,0,0,0-1.792.34,2.981,2.981,0,0,0-1.11.74,3.073,3.073,0,0,0-.722,1.137,5.586,5.586,0,0,0-.332,1.836c-.046,1.042-.056,1.355-.056,3.995s.01,2.952.056,3.995a5.584,5.584,0,0,0,.332,1.836,3.072,3.072,0,0,0,.722,1.137,2.983,2.983,0,0,0,1.11.74,5.226,5.226,0,0,0,1.793.34c1.018.048,1.323.058,3.9.058s2.883-.01,3.9-.058a5.226,5.226,0,0,0,1.793-.34,3.236,3.236,0,0,0,1.832-1.876,5.59,5.59,0,0,0,.332-1.836c.046-1.043.056-1.355.056-3.995s-.01-2.953-.056-3.995A5.578,5.578,0,0,0,150.925,137.763ZM143.4,148.67a5.078,5.078,0,1,1,4.957-5.076A5.018,5.018,0,0,1,143.4,148.67Zm5.153-9.167a1.187,1.187,0,1,1,1.158-1.186A1.173,1.173,0,0,1,148.552,139.5Zm0,0" transform="translate(-135.485 -135.489)"/></g></g></svg>