<svg xmlns="http://www.w3.org/2000/svg" width="34.92" height="25.607" viewBox="0 0 34.92 25.607"><defs><style>.a{fill:#fff;}</style></defs><g transform="translate(948.125 -271.989)"><path class="a" d="M-935.321,287.121c0-5.448,5.215-9.894,11.64-9.894.419,0,.815.023,1.211.046a14.745,14.745,0,0,0-11.687-5.284c-7.706,0-13.968,5.215-13.968,11.64a10.794,10.794,0,0,0,4.4,8.451A20.812,20.812,0,0,1-945.8,297.6a19.548,19.548,0,0,0,7.194-2.933,17.235,17.235,0,0,0,4.446.605,15.735,15.735,0,0,0,3.352-.349A9.4,9.4,0,0,1-935.321,287.121Z"/><path class="a" d="M-687.173,390.719c0-4.214-3.585-7.752-8.381-8.544a12.311,12.311,0,0,0-2.1-.186c-5.8,0-10.476,3.911-10.476,8.73a8.484,8.484,0,0,0,4.935,7.4,12.018,12.018,0,0,0,5.541,1.327,12.274,12.274,0,0,0,3.352-.466,14.35,14.35,0,0,0,5.378,2.212,14.643,14.643,0,0,1-1.536-4.121A8.214,8.214,0,0,0-687.173,390.719Zm-15.132,1.164a1.164,1.164,0,0,1-1.164-1.164,1.164,1.164,0,0,1,1.164-1.164,1.164,1.164,0,0,1,1.164,1.164A1.164,1.164,0,0,1-702.305,391.883Zm4.656,0a1.164,1.164,0,0,1-1.164-1.164,1.164,1.164,0,0,1,1.164-1.164,1.164,1.164,0,0,1,1.164,1.164A1.164,1.164,0,0,1-697.649,391.883Zm4.656,0a1.164,1.164,0,0,1-1.164-1.164,1.164,1.164,0,0,1,1.164-1.164,1.164,1.164,0,0,1,1.164,1.164A1.164,1.164,0,0,1-692.993,391.883Z" transform="translate(-226.032 -103.598)"/></g></svg>