<svg xmlns="http://www.w3.org/2000/svg" xmlns:xlink="http://www.w3.org/1999/xlink" width="202.003" height="47.9" viewBox="0 0 202.003 47.9"><defs><style>.a{fill:none;}.b,.e{fill:#003041;}.c{fill:#fc0;}.c,.d,.e{fill-rule:evenodd;}.d{fill:#0084bd;}.f{clip-path:url(#a);}.g{fill:url(#b);}</style><clipPath id="a"><path class="a" d="M433.414,295.464a.275.275,0,0,0-.072.36A8.308,8.308,0,0,0,436.6,298.9a9.806,9.806,0,0,0,9.137,0A8.312,8.312,0,0,0,449,295.824a.277.277,0,0,0-.072-.36c-.11-.078-.232-.018-.329.078-3.1,3.1-11.753,3.124-14.853,0a.235.235,0,0,0-.2-.12.218.218,0,0,0-.128.041m-.819-.64a1.32,1.32,0,0,0-.32,1.065.244.244,0,0,0,.272.219.26.26,0,0,0,.2-.3.763.763,0,0,1,.186-.618.626.626,0,0,1,.565-.2.242.242,0,0,0,.272-.218.257.257,0,0,0-.2-.3,1.017,1.017,0,0,0-.17-.014,1.093,1.093,0,0,0-.8.363m16.05-.349a.258.258,0,0,0-.2.3.241.241,0,0,0,.271.218.628.628,0,0,1,.566.2.763.763,0,0,1,.185.618.26.26,0,0,0,.2.3.243.243,0,0,0,.272-.219,1.32,1.32,0,0,0-.32-1.065,1.094,1.094,0,0,0-.8-.363,1.011,1.011,0,0,0-.17.014" transform="translate(-432.262 -294.461)"/></clipPath><linearGradient id="b" x1="-41.736" y1="109.465" x2="-41.698" y2="109.465" gradientUnits="objectBoundingBox"><stop offset="0" stop-color="#fac700"/><stop offset="0.33" stop-color="#fac700"/><stop offset="0.36" stop-color="#efc408"/><stop offset="0.414" stop-color="#d2bc1d"/><stop offset="0.483" stop-color="#a4b040"/><stop offset="0.567" stop-color="#649f71"/><stop offset="0.661" stop-color="#138aaf"/><stop offset="0.682" stop-color="#0085be"/><stop offset="1" stop-color="#0085be"/></linearGradient></defs><path class="b" d="M468.375,323.378h-2.487v2.034h2.89v.619h-3.647v-5.74h3.607v.619h-2.85v1.849h2.487Z" transform="translate(-333.647 -280.763)"/><path class="b" d="M472.328,322.4l.023.536a1.556,1.556,0,0,1,1.278-.615q1.352,0,1.364,1.526v2.819h-.73v-2.823a.979.979,0,0,0-.21-.682.844.844,0,0,0-.644-.221,1.051,1.051,0,0,0-.623.19,1.279,1.279,0,0,0-.417.5v3.04h-.73V322.4Z" transform="translate(-335.68 -281.397)"/><path class="b" d="M479.8,326.744a1.862,1.862,0,0,1-1.412-.57,2.114,2.114,0,0,1-.544-1.523v-.134a2.55,2.55,0,0,1,.243-1.133,1.884,1.884,0,0,1,.678-.781,1.7,1.7,0,0,1,.944-.282,1.6,1.6,0,0,1,1.293.548,2.371,2.371,0,0,1,.461,1.569v.3h-2.89a1.514,1.514,0,0,0,.369,1.019,1.156,1.156,0,0,0,.9.389,1.272,1.272,0,0,0,.655-.157,1.645,1.645,0,0,0,.468-.418l.446.347a1.794,1.794,0,0,1-1.608.824m-.091-3.824a.972.972,0,0,0-.741.321,1.561,1.561,0,0,0-.371.9h2.137v-.055a1.4,1.4,0,0,0-.3-.862.919.919,0,0,0-.725-.305" transform="translate(-337.619 -281.397)"/><path class="b" d="M486.4,323.053a2.167,2.167,0,0,0-.358-.027.96.96,0,0,0-.974.611v3.027h-.73V322.4h.709l.012.492a1.135,1.135,0,0,1,1.017-.571.751.751,0,0,1,.323.055Z" transform="translate(-339.646 -281.397)"/><path class="b" d="M487.948,324.5a2.509,2.509,0,0,1,.46-1.586,1.59,1.59,0,0,1,2.441-.037l.036-.473h.666v4.163a1.736,1.736,0,0,1-.491,1.305,1.813,1.813,0,0,1-1.319.477,2.2,2.2,0,0,1-.9-.2,1.561,1.561,0,0,1-.674-.54l.379-.438a1.426,1.426,0,0,0,1.147.58,1.117,1.117,0,0,0,.83-.3,1.145,1.145,0,0,0,.3-.843v-.367a1.5,1.5,0,0,1-1.194.5,1.459,1.459,0,0,1-1.212-.6,2.637,2.637,0,0,1-.462-1.644m.732.083a1.911,1.911,0,0,0,.3,1.133.96.96,0,0,0,.827.412,1.068,1.068,0,0,0,1.013-.626V323.55a1.08,1.08,0,0,0-1-.611.969.969,0,0,0-.831.414,2.08,2.08,0,0,0-.3,1.226" transform="translate(-340.774 -281.397)"/><path class="b" d="M495.97,325.632l.993-3.2h.781l-1.715,4.924q-.4,1.065-1.265,1.065l-.138-.012-.272-.052v-.591l.2.016a.972.972,0,0,0,.577-.15,1.077,1.077,0,0,0,.34-.548l.162-.433-1.522-4.218h.8Z" transform="translate(-342.698 -281.433)"/><path class="b" d="M503.024,324.453a1.345,1.345,0,0,1,.23-.761,3.516,3.516,0,0,1,.881-.808,3.827,3.827,0,0,1-.512-.749,1.448,1.448,0,0,1,.257-1.589,1.451,1.451,0,0,1,1.048-.371,1.411,1.411,0,0,1,.978.345,1.113,1.113,0,0,1,.386.869,1.226,1.226,0,0,1-.175.64,2.266,2.266,0,0,1-.613.617l-.422.312,1.277,1.526a2.419,2.419,0,0,0,.268-1.139h.659a2.748,2.748,0,0,1-.485,1.668l.82.981h-.875l-.382-.453a2,2,0,0,1-.684.4,2.413,2.413,0,0,1-.8.136,1.973,1.973,0,0,1-1.349-.446,1.485,1.485,0,0,1-.508-1.175m1.857,1.025a1.536,1.536,0,0,0,1.06-.441l-1.4-1.675-.131.094a1.316,1.316,0,0,0-.658,1,.968.968,0,0,0,.3.745,1.164,1.164,0,0,0,.826.28m-.659-3.93a1.658,1.658,0,0,0,.466.946l.466-.327a1.24,1.24,0,0,0,.367-.361.823.823,0,0,0,.1-.415.564.564,0,0,0-.2-.44.718.718,0,0,0-.5-.175.644.644,0,0,0-.513.219.819.819,0,0,0-.189.554" transform="translate(-345.482 -280.727)"/><path class="b" d="M518.029,326.031h-.761v-2.653h-2.894v2.653h-.757v-5.74h.757v2.468h2.894v-2.468h.761Z" transform="translate(-348.791 -280.763)"/><path class="b" d="M524.4,326.664a1.528,1.528,0,0,1-.1-.449,1.628,1.628,0,0,1-1.214.528,1.5,1.5,0,0,1-1.034-.357,1.151,1.151,0,0,1-.4-.9,1.205,1.205,0,0,1,.506-1.035,2.385,2.385,0,0,1,1.426-.369h.71v-.335a.821.821,0,0,0-.229-.609.918.918,0,0,0-.674-.227,1.064,1.064,0,0,0-.655.2.58.58,0,0,0-.264.477h-.733a1,1,0,0,1,.227-.617,1.552,1.552,0,0,1,.615-.471,2.069,2.069,0,0,1,.853-.173,1.685,1.685,0,0,1,1.155.369,1.326,1.326,0,0,1,.434,1.015v1.963a2.408,2.408,0,0,0,.15.935v.063Zm-1.21-.556a1.284,1.284,0,0,0,.651-.177,1.076,1.076,0,0,0,.446-.461v-.875h-.571q-1.341,0-1.341.784a.663.663,0,0,0,.229.536.878.878,0,0,0,.587.193" transform="translate(-351.297 -281.397)"/><path class="b" d="M531.81,324.58a2.554,2.554,0,0,1-.446,1.569,1.429,1.429,0,0,1-1.206.6,1.563,1.563,0,0,1-1.222-.493v2.054h-.73V322.4h.666l.036.473a1.5,1.5,0,0,1,1.238-.552,1.455,1.455,0,0,1,1.216.579,2.583,2.583,0,0,1,.448,1.613Zm-.73-.083a1.883,1.883,0,0,0-.307-1.139.99.99,0,0,0-.844-.417,1.073,1.073,0,0,0-.993.587v2.038a1.075,1.075,0,0,0,1,.583.986.986,0,0,0,.833-.416,2.051,2.051,0,0,0,.31-1.236" transform="translate(-353.347 -281.397)"/><path class="b" d="M538.4,324.58a2.554,2.554,0,0,1-.446,1.569,1.428,1.428,0,0,1-1.206.6,1.563,1.563,0,0,1-1.222-.493v2.054h-.73V322.4h.666l.036.473a1.5,1.5,0,0,1,1.238-.552,1.455,1.455,0,0,1,1.216.579,2.583,2.583,0,0,1,.448,1.613Zm-.73-.083a1.883,1.883,0,0,0-.307-1.139.99.99,0,0,0-.844-.417,1.073,1.073,0,0,0-.993.587v2.038a1.075,1.075,0,0,0,1,.583.986.986,0,0,0,.833-.416,2.052,2.052,0,0,0,.31-1.236" transform="translate(-355.404 -281.397)"/><path class="b" d="M541.387,320.6a.432.432,0,0,1,.108-.3.409.409,0,0,1,.322-.122.413.413,0,0,1,.323.122.431.431,0,0,1,.111.3.432.432,0,1,1-.863,0m.788,5.4h-.73v-4.266h.73Z" transform="translate(-357.464 -280.727)"/><path class="b" d="M544.92,322.4l.023.536a1.556,1.556,0,0,1,1.278-.615q1.352,0,1.364,1.526v2.819h-.73v-2.823a.979.979,0,0,0-.21-.682.844.844,0,0,0-.644-.221,1.051,1.051,0,0,0-.623.19,1.279,1.279,0,0,0-.417.5v3.04h-.73V322.4Z" transform="translate(-358.351 -281.397)"/><path class="b" d="M552.394,326.744a1.863,1.863,0,0,1-1.412-.57,2.114,2.114,0,0,1-.544-1.523v-.134a2.549,2.549,0,0,1,.243-1.133,1.884,1.884,0,0,1,.678-.781,1.7,1.7,0,0,1,.944-.282,1.6,1.6,0,0,1,1.293.548,2.372,2.372,0,0,1,.461,1.569v.3h-2.89a1.514,1.514,0,0,0,.369,1.019,1.156,1.156,0,0,0,.9.389,1.272,1.272,0,0,0,.655-.157,1.646,1.646,0,0,0,.468-.418l.446.347a1.794,1.794,0,0,1-1.608.824m-.091-3.824a.972.972,0,0,0-.741.321,1.56,1.56,0,0,0-.371.9h2.137v-.055a1.394,1.394,0,0,0-.3-.862.919.919,0,0,0-.725-.305" transform="translate(-360.29 -281.397)"/><path class="b" d="M559.331,325.533a.537.537,0,0,0-.223-.459,2.156,2.156,0,0,0-.776-.282,3.666,3.666,0,0,1-.879-.283,1.251,1.251,0,0,1-.481-.395.941.941,0,0,1-.155-.544,1.109,1.109,0,0,1,.443-.887,1.737,1.737,0,0,1,1.134-.362,1.783,1.783,0,0,1,1.177.375,1.19,1.19,0,0,1,.451.958h-.732a.66.66,0,0,0-.255-.516.951.951,0,0,0-.64-.217,1,1,0,0,0-.624.173.548.548,0,0,0-.224.454.443.443,0,0,0,.209.4,2.554,2.554,0,0,0,.755.256,3.933,3.933,0,0,1,.885.292,1.283,1.283,0,0,1,.5.408,1,1,0,0,1,.164.582,1.091,1.091,0,0,1-.457.916,1.918,1.918,0,0,1-1.187.345,2.141,2.141,0,0,1-.906-.182,1.474,1.474,0,0,1-.617-.506,1.222,1.222,0,0,1-.222-.7h.729a.756.756,0,0,0,.294.582,1.14,1.14,0,0,0,.723.215,1.178,1.178,0,0,0,.664-.167.515.515,0,0,0,.25-.448" transform="translate(-362.237 -281.397)"/><path class="b" d="M565.385,325.533a.537.537,0,0,0-.223-.459,2.155,2.155,0,0,0-.776-.282,3.664,3.664,0,0,1-.879-.283,1.251,1.251,0,0,1-.481-.395.941.941,0,0,1-.155-.544,1.109,1.109,0,0,1,.443-.887,1.737,1.737,0,0,1,1.134-.362,1.783,1.783,0,0,1,1.177.375,1.19,1.19,0,0,1,.451.958h-.732a.66.66,0,0,0-.255-.516.95.95,0,0,0-.64-.217,1,1,0,0,0-.624.173.548.548,0,0,0-.224.454.443.443,0,0,0,.209.4,2.553,2.553,0,0,0,.755.256,3.932,3.932,0,0,1,.885.292,1.283,1.283,0,0,1,.5.408,1,1,0,0,1,.164.582,1.091,1.091,0,0,1-.457.916,1.918,1.918,0,0,1-1.187.345,2.141,2.141,0,0,1-.906-.182,1.474,1.474,0,0,1-.618-.506,1.222,1.222,0,0,1-.222-.7h.729a.755.755,0,0,0,.294.582,1.14,1.14,0,0,0,.723.215,1.178,1.178,0,0,0,.664-.167.516.516,0,0,0,.25-.448" transform="translate(-364.127 -281.397)"/><path class="c" d="M277.709,318.612a12.9,12.9,0,0,0,18.244,0l1.936-1.923,1.939,1.928a12.895,12.895,0,0,0,18.235-18.236l-.168-.166-3.54,3.553.158.159a7.879,7.879,0,0,1-11.139,11.145l-1.937-1.938h-7.1l-1.93,1.938a7.887,7.887,0,0,1-11.162-11.145l.174-.159-3.557-3.553-.157.166a12.892,12.892,0,0,0,0,18.232" transform="translate(-273.933 -274.493)"/><path class="d" d="M294.341,272.067l-1.929-1.929a7.887,7.887,0,0,0-11.162,11.145q8.325,8.306,16.64,16.629,8.313-8.313,16.624-16.629a7.879,7.879,0,0,0-11.139-11.145l-1.937,1.929-3.548,3.549Zm3.549,32.94,3.548-3.555,16.625-16.626a12.9,12.9,0,0,0-18.235-18.244l-1.939,1.943-1.936-1.943a12.9,12.9,0,1,0-18.245,18.244l16.632,16.626Z" transform="translate(-273.933 -262.811)"/><path class="c" d="M293.533,287.545l-3.546-3.5L302.9,271.122,315.782,284l-3.546,3.634-9.351-9.351Z" transform="translate(-278.947 -265.407)"/><path class="e" d="M363.417,295.35h11.231v-4.663H363.417v-4.833H376.18v-4.662H358.21v23.823h18.14v-4.662H363.417Z" transform="translate(-300.254 -268.552)"/><path class="e" d="M407.369,295.86l-11.163-14.668h-4.833v23.823h5.173V289.871l11.538,15.145h4.458V281.192h-5.173Z" transform="translate(-310.612 -268.552)"/><path class="e" d="M445.382,290.619v1.511a13.355,13.355,0,0,1-4.79.822,13.1,13.1,0,0,1-4.876-.866V281.192h-5.241v23.823h5.241v-9.547a10.559,10.559,0,0,0,9.665.061v9.487h5.241V281.192h-5.241Z" transform="translate(-322.824 -268.552)"/><path class="e" d="M475.333,280.943l-10.21,23.994h5.343l2.178-5.343h10.075l2.179,5.343h5.479l-10.21-23.994Zm-.816,14.023,3.165-7.726,3.165,7.726Z" transform="translate(-333.645 -268.474)"/><path class="e" d="M516.93,281.191H507.2v23.824h5.241v-7.148h3.982c5.343,0,9.632-2.858,9.632-8.371v-.068c0-4.867-3.438-8.237-9.121-8.237m3.812,8.406c0,2.042-1.532,3.609-4.152,3.609h-4.152v-7.283h4.05c2.621,0,4.255,1.258,4.255,3.606Z" transform="translate(-346.785 -268.551)"/><path class="e" d="M549.993,281.191h-9.734v23.824H545.5v-7.148h3.982c5.343,0,9.632-2.858,9.632-8.371v-.068c0-4.867-3.438-8.237-9.121-8.237M553.8,289.6c0,2.042-1.532,3.609-4.152,3.609H545.5v-7.283h4.05c2.621,0,4.255,1.258,4.255,3.606Z" transform="translate(-357.111 -268.551)"/><g transform="translate(108.88 21.765)"><g class="f"><rect class="g" width="17.87" height="5.891" transform="translate(-0.141 0.002) rotate(-1.028)"/></g></g></svg>