<svg xmlns="http://www.w3.org/2000/svg" xmlns:xlink="http://www.w3.org/1999/xlink" width="239.978" height="56.904" viewBox="0 0 239.978 56.904"><defs><style>.a,.b{fill:#fff;}.b{fill-rule:evenodd;}.c{clip-path:url(#a);}</style><clipPath id="a"><path class="a" d="M433.63,295.653a.327.327,0,0,0-.086.427,9.87,9.87,0,0,0,3.872,3.66,11.649,11.649,0,0,0,10.854,0,9.875,9.875,0,0,0,3.872-3.66.329.329,0,0,0-.086-.427c-.131-.092-.276-.021-.39.093-3.684,3.681-13.962,3.711-17.645,0a.28.28,0,0,0-.239-.142.259.259,0,0,0-.152.049m-.973-.761a1.568,1.568,0,0,0-.38,1.265.29.29,0,0,0,.323.26.309.309,0,0,0,.237-.353.907.907,0,0,1,.221-.734.743.743,0,0,1,.671-.241.287.287,0,0,0,.323-.259.306.306,0,0,0-.237-.352,1.209,1.209,0,0,0-.2-.017,1.3,1.3,0,0,0-.956.431m19.068-.414a.306.306,0,0,0-.237.352.287.287,0,0,0,.322.259.746.746,0,0,1,.672.241.906.906,0,0,1,.22.734.309.309,0,0,0,.238.353.289.289,0,0,0,.323-.26,1.568,1.568,0,0,0-.38-1.265,1.3,1.3,0,0,0-.956-.431,1.2,1.2,0,0,0-.2.017" transform="translate(-432.262 -294.461)"/></clipPath></defs><path class="a" d="M468.985,323.958H466.03v2.417h3.433v.735h-4.332v-6.819h4.285v.735H466.03v2.2h2.955Z" transform="translate(-308.93 -273.332)"/><path class="a" d="M472.457,322.414l.028.637A1.848,1.848,0,0,1,474,322.32q1.607,0,1.62,1.813v3.349h-.867v-3.354a1.163,1.163,0,0,0-.25-.81,1,1,0,0,0-.766-.262,1.249,1.249,0,0,0-.74.226,1.519,1.519,0,0,0-.5.59v3.611h-.867v-5.068Z" transform="translate(-310.121 -273.704)"/><path class="a" d="M480.169,327.576a2.212,2.212,0,0,1-1.677-.677,2.511,2.511,0,0,1-.646-1.81v-.159a3.029,3.029,0,0,1,.288-1.346,2.239,2.239,0,0,1,.806-.927,2.021,2.021,0,0,1,1.122-.335,1.9,1.9,0,0,1,1.536.651,2.817,2.817,0,0,1,.548,1.863v.36h-3.433a1.8,1.8,0,0,0,.438,1.211,1.373,1.373,0,0,0,1.064.462,1.511,1.511,0,0,0,.779-.187,1.954,1.954,0,0,0,.556-.5l.53.413a2.131,2.131,0,0,1-1.911.979m-.108-4.543a1.155,1.155,0,0,0-.881.382,1.854,1.854,0,0,0-.44,1.07h2.538v-.065a1.657,1.657,0,0,0-.355-1.024,1.092,1.092,0,0,0-.862-.363" transform="translate(-311.258 -273.704)"/><path class="a" d="M486.785,323.191a2.576,2.576,0,0,0-.426-.033,1.14,1.14,0,0,0-1.157.726v3.6h-.867v-5.067h.842l.015.585a1.349,1.349,0,0,1,1.208-.679.893.893,0,0,1,.384.065Z" transform="translate(-312.445 -273.704)"/><path class="a" d="M487.948,324.9a2.98,2.98,0,0,1,.546-1.885,1.889,1.889,0,0,1,2.9-.044l.043-.562h.792v4.945a2.062,2.062,0,0,1-.583,1.551,2.154,2.154,0,0,1-1.567.567,2.612,2.612,0,0,1-1.073-.234,1.854,1.854,0,0,1-.8-.641l.45-.52a1.694,1.694,0,0,0,1.363.689,1.327,1.327,0,0,0,.986-.356,1.36,1.36,0,0,0,.353-1v-.436a1.777,1.777,0,0,1-1.419.6,1.733,1.733,0,0,1-1.44-.716,3.134,3.134,0,0,1-.549-1.953m.87.1a2.27,2.27,0,0,0,.352,1.346,1.14,1.14,0,0,0,.983.489,1.269,1.269,0,0,0,1.2-.744v-2.314a1.283,1.283,0,0,0-1.194-.726,1.151,1.151,0,0,0-.988.492,2.471,2.471,0,0,0-.357,1.457" transform="translate(-313.107 -273.704)"/><path class="a" d="M496.32,326.233l1.18-3.8h.928l-2.037,5.849q-.473,1.265-1.5,1.265l-.164-.014-.324-.061v-.7l.235.019a1.155,1.155,0,0,0,.685-.178,1.28,1.28,0,0,0,.4-.651l.193-.515-1.808-5.011h.946Z" transform="translate(-314.234 -273.725)"/><path class="a" d="M503.024,325.258a1.6,1.6,0,0,1,.274-.9,4.177,4.177,0,0,1,1.047-.96,4.546,4.546,0,0,1-.609-.89,1.721,1.721,0,0,1,.3-1.887,1.724,1.724,0,0,1,1.245-.44,1.677,1.677,0,0,1,1.162.41,1.323,1.323,0,0,1,.459,1.033,1.458,1.458,0,0,1-.208.761,2.693,2.693,0,0,1-.729.733l-.5.37,1.517,1.813a2.874,2.874,0,0,0,.319-1.354h.783a3.265,3.265,0,0,1-.576,1.981l.974,1.166h-1.04l-.454-.538a2.376,2.376,0,0,1-.813.471,2.865,2.865,0,0,1-.948.162,2.344,2.344,0,0,1-1.6-.529,1.765,1.765,0,0,1-.6-1.4m2.206,1.217a1.824,1.824,0,0,0,1.26-.524l-1.663-1.99-.155.112a1.563,1.563,0,0,0-.782,1.185,1.15,1.15,0,0,0,.359.885,1.382,1.382,0,0,0,.981.332m-.783-4.669A1.97,1.97,0,0,0,505,322.93l.553-.389a1.474,1.474,0,0,0,.435-.429.978.978,0,0,0,.117-.494.67.67,0,0,0-.234-.523.853.853,0,0,0-.59-.208.765.765,0,0,0-.609.26.973.973,0,0,0-.225.658" transform="translate(-315.866 -273.311)"/><path class="a" d="M518.858,327.11h-.9v-3.152h-3.438v3.152h-.9v-6.819h.9v2.932h3.438v-2.932h.9Z" transform="translate(-317.805 -273.332)"/><path class="a" d="M524.918,327.481a1.816,1.816,0,0,1-.122-.533,1.934,1.934,0,0,1-1.443.627,1.785,1.785,0,0,1-1.229-.424,1.368,1.368,0,0,1-.48-1.074,1.432,1.432,0,0,1,.6-1.23,2.833,2.833,0,0,1,1.693-.438h.843v-.4a.976.976,0,0,0-.272-.724,1.09,1.09,0,0,0-.8-.27,1.264,1.264,0,0,0-.778.234.689.689,0,0,0-.314.566h-.871a1.191,1.191,0,0,1,.27-.733,1.845,1.845,0,0,1,.731-.56,2.458,2.458,0,0,1,1.014-.206,2,2,0,0,1,1.372.438,1.575,1.575,0,0,1,.515,1.206V326.3a2.859,2.859,0,0,0,.178,1.11v.074Zm-1.438-.66a1.525,1.525,0,0,0,.773-.211,1.278,1.278,0,0,0,.529-.548v-1.039H524.1q-1.593,0-1.593.931a.788.788,0,0,0,.272.637,1.044,1.044,0,0,0,.7.23" transform="translate(-319.274 -273.704)"/><path class="a" d="M532.488,325a3.034,3.034,0,0,1-.529,1.863,1.7,1.7,0,0,1-1.433.707,1.856,1.856,0,0,1-1.452-.586v2.44h-.867v-7.016H529l.042.562a1.783,1.783,0,0,1,1.47-.655,1.728,1.728,0,0,1,1.444.688,3.068,3.068,0,0,1,.532,1.916Zm-.867-.1a2.237,2.237,0,0,0-.365-1.354,1.176,1.176,0,0,0-1-.5,1.274,1.274,0,0,0-1.18.7v2.421a1.277,1.277,0,0,0,1.19.693,1.171,1.171,0,0,0,.99-.494,2.437,2.437,0,0,0,.368-1.468" transform="translate(-320.476 -273.704)"/><path class="a" d="M539.075,325a3.034,3.034,0,0,1-.529,1.863,1.7,1.7,0,0,1-1.433.707,1.857,1.857,0,0,1-1.452-.586v2.44h-.867v-7.016h.792l.043.562a1.783,1.783,0,0,1,1.471-.655,1.728,1.728,0,0,1,1.444.688,3.068,3.068,0,0,1,.532,1.916Zm-.867-.1a2.236,2.236,0,0,0-.365-1.354,1.176,1.176,0,0,0-1-.5,1.275,1.275,0,0,0-1.18.7v2.421a1.277,1.277,0,0,0,1.19.693,1.171,1.171,0,0,0,.99-.494,2.437,2.437,0,0,0,.368-1.468" transform="translate(-321.681 -273.704)"/><path class="a" d="M541.387,320.678a.513.513,0,0,1,.128-.356.486.486,0,0,1,.382-.145.491.491,0,0,1,.383.145.512.512,0,0,1,.132.356.513.513,0,1,1-1.025,0m.936,6.411h-.867v-5.068h.867Z" transform="translate(-322.888 -273.311)"/><path class="a" d="M545.049,322.414l.028.637a1.848,1.848,0,0,1,1.518-.731q1.607,0,1.62,1.813v3.349h-.867v-3.354a1.162,1.162,0,0,0-.25-.81,1,1,0,0,0-.766-.262,1.248,1.248,0,0,0-.74.226,1.519,1.519,0,0,0-.5.59v3.611h-.867v-5.068Z" transform="translate(-323.408 -273.704)"/><path class="a" d="M552.761,327.576a2.212,2.212,0,0,1-1.677-.677,2.511,2.511,0,0,1-.646-1.81v-.159a3.028,3.028,0,0,1,.288-1.346,2.239,2.239,0,0,1,.805-.927,2.021,2.021,0,0,1,1.122-.335,1.9,1.9,0,0,1,1.536.651,2.817,2.817,0,0,1,.548,1.863v.36H551.3a1.8,1.8,0,0,0,.438,1.211,1.374,1.374,0,0,0,1.065.462,1.511,1.511,0,0,0,.779-.187,1.956,1.956,0,0,0,.556-.5l.53.413a2.131,2.131,0,0,1-1.911.979m-.108-4.543a1.155,1.155,0,0,0-.881.382,1.853,1.853,0,0,0-.44,1.07h2.538v-.065a1.657,1.657,0,0,0-.355-1.024,1.092,1.092,0,0,0-.862-.363" transform="translate(-324.545 -273.704)"/><path class="a" d="M559.831,326.137a.638.638,0,0,0-.265-.546,2.562,2.562,0,0,0-.922-.335,4.353,4.353,0,0,1-1.044-.337,1.486,1.486,0,0,1-.572-.469,1.118,1.118,0,0,1-.185-.646,1.317,1.317,0,0,1,.526-1.054,2.063,2.063,0,0,1,1.347-.43,2.118,2.118,0,0,1,1.4.445,1.414,1.414,0,0,1,.536,1.138h-.87a.784.784,0,0,0-.3-.614,1.129,1.129,0,0,0-.761-.258,1.19,1.19,0,0,0-.741.206.651.651,0,0,0-.266.539.527.527,0,0,0,.248.473,3.034,3.034,0,0,0,.9.3,4.67,4.67,0,0,1,1.051.347,1.523,1.523,0,0,1,.6.484,1.19,1.19,0,0,1,.2.691,1.3,1.3,0,0,1-.543,1.088,2.278,2.278,0,0,1-1.41.41,2.544,2.544,0,0,1-1.077-.216,1.751,1.751,0,0,1-.734-.6,1.452,1.452,0,0,1-.264-.837h.866a.9.9,0,0,0,.349.691,1.355,1.355,0,0,0,.859.255,1.4,1.4,0,0,0,.789-.2.612.612,0,0,0,.3-.532" transform="translate(-325.686 -273.704)"/><path class="a" d="M565.885,326.137a.638.638,0,0,0-.265-.546,2.561,2.561,0,0,0-.922-.335,4.35,4.35,0,0,1-1.044-.337,1.486,1.486,0,0,1-.572-.469,1.119,1.119,0,0,1-.185-.646,1.317,1.317,0,0,1,.526-1.054,2.063,2.063,0,0,1,1.347-.43,2.118,2.118,0,0,1,1.4.445,1.414,1.414,0,0,1,.536,1.138h-.87a.784.784,0,0,0-.3-.614,1.129,1.129,0,0,0-.761-.258,1.19,1.19,0,0,0-.741.206.651.651,0,0,0-.266.539.527.527,0,0,0,.248.473,3.032,3.032,0,0,0,.9.3,4.67,4.67,0,0,1,1.051.347,1.525,1.525,0,0,1,.6.484,1.19,1.19,0,0,1,.2.691,1.3,1.3,0,0,1-.543,1.088,2.278,2.278,0,0,1-1.41.41,2.543,2.543,0,0,1-1.077-.216,1.751,1.751,0,0,1-.734-.6,1.452,1.452,0,0,1-.264-.837h.866a.9.9,0,0,0,.349.691,1.355,1.355,0,0,0,.859.255,1.4,1.4,0,0,0,.789-.2.612.612,0,0,0,.3-.532" transform="translate(-326.794 -273.704)"/><path class="b" d="M278.419,322.071a15.323,15.323,0,0,0,21.674,0l2.3-2.285,2.3,2.29a15.319,15.319,0,0,0,21.663-21.664l-.2-.2-4.206,4.221.188.189a9.36,9.36,0,1,1-13.233,13.241l-2.3-2.3h-8.432l-2.292,2.3a9.369,9.369,0,0,1-13.26-13.241l.207-.189-4.226-4.221-.186.2a15.316,15.316,0,0,0,0,21.659" transform="translate(-273.933 -269.657)"/><path class="b" d="M298.177,273.807l-2.292-2.292a9.369,9.369,0,1,0-13.26,13.24q9.891,9.867,19.768,19.755,9.876-9.876,19.749-19.755a9.36,9.36,0,1,0-13.233-13.24l-2.3,2.292-4.216,4.216Zm4.216,39.132,4.216-4.223,19.751-19.752A15.322,15.322,0,0,0,304.7,267.291l-2.3,2.309-2.3-2.309a15.326,15.326,0,0,0-21.675,21.674l19.758,19.752Z" transform="translate(-273.933 -262.811)"/><path class="b" d="M294.2,290.632l-4.212-4.159,15.344-15.352,15.3,15.3-4.212,4.318L305.31,279.629Z" transform="translate(-276.872 -264.332)"/><path class="b" d="M364.4,298.011h13.343v-5.539H364.4V286.73h15.162v-5.539H358.21v28.3H379.76v-5.539H364.4Z" transform="translate(-289.359 -266.175)"/><path class="b" d="M410.376,298.618l-13.261-17.426h-5.742v28.3h6.145V291.5l13.707,17.992h5.3v-28.3h-6.145Z" transform="translate(-295.43 -266.176)"/><path class="b" d="M448.184,292.392v1.795a15.865,15.865,0,0,1-5.69.977,15.562,15.562,0,0,1-5.792-1.029V281.192h-6.227v28.3H436.7V298.152a12.544,12.544,0,0,0,11.482.072v11.27h6.227v-28.3h-6.227Z" transform="translate(-302.587 -266.175)"/><path class="b" d="M477.252,280.943l-12.129,28.5h6.348l2.587-6.348h11.968l2.588,6.348h6.509l-12.129-28.5Zm-.97,16.659,3.76-9.178,3.76,9.178Z" transform="translate(-308.929 -266.13)"/><path class="b" d="M518.76,281.191H507.2v28.3h6.227V301h4.73c6.348,0,11.443-3.4,11.443-9.945v-.081c0-5.782-4.085-9.786-10.836-9.786m4.528,9.986c0,2.426-1.82,4.287-4.933,4.287h-4.933v-8.652h4.811c3.113,0,5.055,1.5,5.055,4.284Z" transform="translate(-316.63 -266.175)"/><path class="b" d="M551.823,281.191H540.259v28.3h6.227V301h4.731c6.347,0,11.442-3.4,11.442-9.945v-.081c0-5.782-4.084-9.786-10.836-9.786m4.528,9.986c0,2.426-1.82,4.287-4.933,4.287h-4.933v-8.652H551.3c3.114,0,5.055,1.5,5.055,4.284Z" transform="translate(-322.682 -266.175)"/><g transform="translate(129.348 25.857)"><g class="c"><rect class="a" width="21.23" height="6.999" transform="translate(-0.168 0.002) rotate(-1.028)"/></g></g></svg>