<svg xmlns="http://www.w3.org/2000/svg" xmlns:xlink="http://www.w3.org/1999/xlink" width="19" height="20" viewBox="0 0 19 20"><defs><style>.a{fill:#fff;stroke:#707070;}.b{clip-path:url(#a);}.c{fill:#003041;}</style><clipPath id="a"><rect class="a" width="19" height="20" transform="translate(0.075 -0.445)"/></clipPath></defs><g class="b" transform="translate(-0.075 0.445)"><path class="c" d="M132.96,145.49q.011.252.011.507a11.08,11.08,0,0,1-11.156,11.156h0a11.1,11.1,0,0,1-6.01-1.761,7.972,7.972,0,0,0,.935.054,7.868,7.868,0,0,0,4.87-1.678,3.925,3.925,0,0,1-3.663-2.723,3.906,3.906,0,0,0,1.771-.067,3.922,3.922,0,0,1-3.146-3.843c0-.018,0-.034,0-.05a3.894,3.894,0,0,0,1.776.49,3.924,3.924,0,0,1-1.214-5.235,11.132,11.132,0,0,0,8.082,4.1,3.923,3.923,0,0,1,6.681-3.576,7.866,7.866,0,0,0,2.49-.952,3.937,3.937,0,0,1-1.724,2.169,7.819,7.819,0,0,0,2.252-.617A7.97,7.97,0,0,1,132.96,145.49Z" transform="translate(-115.805 -139.774)"/></g></svg>